/* XPM */
static char *_0dcf0f4abb5478587c1dc66a423ddedubGsfcPqqfIEa3Gq[] = {
/* columns rows colors chars-per-pixel */
"16 16 64 1 ",
"  c #71706D",
". c #73726D",
"X c #858473",
"o c #898874",
"O c #8C8B75",
"+ c #8E8D77",
"@ c #8F8F77",
"# c #908F78",
"$ c #92917B",
"% c #92927B",
"& c #95947E",
"* c #95957E",
"= c #979781",
"- c #989883",
"; c #9A9984",
": c #9F9F8B",
"> c #A3A490",
", c #A3A491",
"< c #A4A592",
"1 c #A5A693",
"2 c #A6A895",
"3 c #A8AB96",
"4 c #A9AA97",
"5 c #AAAC99",
"6 c #ABAD9A",
"7 c #ACAF9B",
"8 c #ACB09B",
"9 c #AEB09D",
"0 c #B2B7A3",
"q c #B4B7A6",
"w c #B3B8A3",
"e c #B5BBA5",
"r c #B6B9A7",
"t c #B7BAA8",
"y c #B7BFA8",
"u c #B8BBA9",
"i c #BABDAB",
"p c #BBBFAC",
"a c #B9C1A9",
"s c #BBC3AC",
"d c #BCC5AD",
"f c #BEC4AE",
"g c #BDC6AE",
"h c #BDC6B0",
"j c #BEC8B0",
"k c #C1CAB2",
"l c #C2CCB3",
"z c #C5D1B7",
"x c #C3D1B8",
"c c #C5D2B9",
"v c #C7D5BB",
"b c #C7D6BD",
"n c #C8D3BB",
"m c #C8D8BF",
"M c #C9D9BF",
"N c #CADAC0",
"B c #CBDBC2",
"V c #CDDDC4",
"C c #CFDFC6",
"Z c #D1DFC7",
"A c #D1E0C7",
"S c #D8E7CF",
"D c #D9E8CF",
"F c #D9E8D0",
/* pixels */
"qklshFFFFFFFcilk",
"ui5wnFFFFFFFZk<2",
"8<akcFSNNSFFAbg>",
"<<acMBNMSDFFAbg>",
"tgkcMMMSFFFCMvlg",
"kvvccMMVVVVNvcvb",
"cmMmvzMMzMMczMMM",
"bMMMxeccgxvehMMM",
"xMNci<00uw020cmM",
"gvmg8:<4i4<:4ivn",
"igg6:*4gag6=-<ag",
"pt2=$<plkkp6-$>p",
"lu=+$<kkkkk4=+$t",
"N2$OO&uuutp-+++>",
"t@++&<,,<,<<-@++",
"@ X>ue,,,,eip8o "
};
